<?xml version="1.0" encoding="UTF-8" standalone="no"?>
<!DOCTYPE svg PUBLIC "-//W3C//DTD SVG 1.1//EN"
 "http://www.w3.org/Graphics/SVG/1.1/DTD/svg11.dtd">
<!-- Generated by graphviz version 2.43.0 (0)
 -->
<!-- Title: GVmap Pages: 1 -->
<svg width="1032pt" height="189pt"
 viewBox="0.00 0.00 1031.50 189.00" xmlns="http://www.w3.org/2000/svg" xmlns:xlink="http://www.w3.org/1999/xlink">
<g id="graph0" class="graph" transform="scale(1 1) rotate(0) translate(4 185)">
<title>GVmap</title>
<polygon fill="white" stroke="transparent" points="-4,4 -4,-185 1027.5,-185 1027.5,4 -4,4"/>
<text text-anchor="middle" x="511.75" y="-7.8" font-family="Times,serif" font-size="14.00">dali data model</text>
<!-- dali:uuid -->
<g id="node1" class="node">
<title>dali:uuid</title>
<g id="a_node1"><a xlink:href="../dali/uuid" xlink:title="{&amp;lt;&amp;lt;primitive type&amp;gt;&amp;gt;\nuuid}">
<polygon fill="#8dd3c7" stroke="black" points="0,-136.5 0,-172.5 98,-172.5 98,-136.5 0,-136.5"/>
<text text-anchor="middle" x="49" y="-157.1" font-family="Times,serif" font-size="8.00">&lt;&lt;primitive type&gt;&gt;</text>
<text text-anchor="middle" x="49" y="-148.1" font-family="Times,serif" font-size="8.00">uuid</text>
</a>
</g>
</g>
<!-- dali:double -->
<g id="node2" class="node">
<title>dali:double</title>
<g id="a_node2"><a xlink:href="../dali/double" xlink:title="{&amp;lt;&amp;lt;primitive type&amp;gt;&amp;gt;\ndouble}">
<polygon fill="#8dd3c7" stroke="black" points="116,-136.5 116,-172.5 214,-172.5 214,-136.5 116,-136.5"/>
<text text-anchor="middle" x="165" y="-157.1" font-family="Times,serif" font-size="8.00">&lt;&lt;primitive type&gt;&gt;</text>
<text text-anchor="middle" x="165" y="-148.1" font-family="Times,serif" font-size="8.00">double</text>
</a>
</g>
</g>
<!-- dali:int32 -->
<g id="node3" class="node">
<title>dali:int32</title>
<g id="a_node3"><a xlink:href="../dali/int32" xlink:title="{&amp;lt;&amp;lt;primitive type&amp;gt;&amp;gt;\nint32}">
<polygon fill="#8dd3c7" stroke="black" points="232,-136.5 232,-172.5 330,-172.5 330,-136.5 232,-136.5"/>
<text text-anchor="middle" x="281" y="-157.1" font-family="Times,serif" font-size="8.00">&lt;&lt;primitive type&gt;&gt;</text>
<text text-anchor="middle" x="281" y="-148.1" font-family="Times,serif" font-size="8.00">int32</text>
</a>
</g>
</g>
<!-- dali:int64 -->
<g id="node4" class="node">
<title>dali:int64</title>
<g id="a_node4"><a xlink:href="../dali/int64" xlink:title="{&amp;lt;&amp;lt;primitive type&amp;gt;&amp;gt;\nint64}">
<polygon fill="#8dd3c7" stroke="black" points="348,-136.5 348,-172.5 446,-172.5 446,-136.5 348,-136.5"/>
<text text-anchor="middle" x="397" y="-157.1" font-family="Times,serif" font-size="8.00">&lt;&lt;primitive type&gt;&gt;</text>
<text text-anchor="middle" x="397" y="-148.1" font-family="Times,serif" font-size="8.00">int64</text>
</a>
</g>
</g>
<!-- dali:Point -->
<g id="node5" class="node">
<title>dali:Point</title>
<g id="a_node5"><a xlink:href="../dali/Point" xlink:title="{&amp;lt;&amp;lt;datatype&amp;gt;&amp;gt;\nPoint|+cval1 : dali:double\l+cval2 : dali:double\l}">
<polygon fill="#8dd3c7" stroke="black" points="464,-128.5 464,-180.5 560,-180.5 560,-128.5 464,-128.5"/>
<text text-anchor="middle" x="512" y="-170.1" font-family="Times,serif" font-size="8.00">&lt;&lt;datatype&gt;&gt;</text>
<text text-anchor="middle" x="512" y="-161.1" font-family="Times,serif" font-size="8.00">Point</text>
<polyline fill="none" stroke="black" points="464,-154.5 560,-154.5 "/>
<text text-anchor="start" x="472" y="-144.1" font-family="Times,serif" font-size="8.00">+cval1 : dali:double</text>
<text text-anchor="start" x="472" y="-135.1" font-family="Times,serif" font-size="8.00">+cval2 : dali:double</text>
</a>
</g>
</g>
<!-- dali:Shape -->
<g id="node6" class="node">
<title>dali:Shape</title>
<g id="a_node6"><a xlink:href="../dali/Shape" xlink:title="{&amp;lt;&amp;lt;datatype&amp;gt;&amp;gt;\nShape}">
<polygon fill="#8dd3c7" stroke="black" points="646,-55.5 646,-91.5 724,-91.5 724,-55.5 646,-55.5"/>
<text text-anchor="middle" x="685" y="-76.1" font-family="Times,serif" font-size="8.00">&lt;&lt;datatype&gt;&gt;</text>
<text text-anchor="middle" x="685" y="-67.1" font-family="Times,serif" font-size="8.00">Shape</text>
</a>
</g>
</g>
<!-- dali:Circle -->
<g id="node7" class="node">
<title>dali:Circle</title>
<g id="a_node7"><a xlink:href="../dali/Circle" xlink:title="{&amp;lt;&amp;lt;datatype&amp;gt;&amp;gt;\nCircle|+center : dali:Point\l+radius : dali:double\l}">
<polygon fill="#8dd3c7" stroke="black" points="578,-128.5 578,-180.5 678,-180.5 678,-128.5 578,-128.5"/>
<text text-anchor="middle" x="628" y="-170.1" font-family="Times,serif" font-size="8.00">&lt;&lt;datatype&gt;&gt;</text>
<text text-anchor="middle" x="628" y="-161.1" font-family="Times,serif" font-size="8.00">Circle</text>
<polyline fill="none" stroke="black" points="578,-154.5 678,-154.5 "/>
<text text-anchor="start" x="586" y="-144.1" font-family="Times,serif" font-size="8.00">+center : dali:Point</text>
<text text-anchor="start" x="586" y="-135.1" font-family="Times,serif" font-size="8.00">+radius : dali:double</text>
</a>
</g>
</g>
<!-- dali:Circle&#45;&gt;dali:Shape -->
<g id="edge1" class="edge">
<title>dali:Circle&#45;&gt;dali:Shape</title>
<path fill="none" stroke="red" d="M646.35,-128.07C652.86,-119.05 660.18,-108.89 666.69,-99.87"/>
<polygon fill="none" stroke="red" points="669.61,-101.81 672.63,-91.65 663.94,-97.71 669.61,-101.81"/>
</g>
<!-- dali:MultiShape -->
<g id="node8" class="node">
<title>dali:MultiShape</title>
<g id="a_node8"><a xlink:href="../dali/MultiShape" xlink:title="{&amp;lt;&amp;lt;datatype&amp;gt;&amp;gt;\nMultiShape|+shapes : dali:Shape\l}">
<polygon fill="#8dd3c7" stroke="black" points="806,-133 806,-176 906,-176 906,-133 806,-133"/>
<text text-anchor="middle" x="856" y="-165.6" font-family="Times,serif" font-size="8.00">&lt;&lt;datatype&gt;&gt;</text>
<text text-anchor="middle" x="856" y="-156.6" font-family="Times,serif" font-size="8.00">MultiShape</text>
<polyline fill="none" stroke="black" points="806,-150 906,-150 "/>
<text text-anchor="start" x="814" y="-139.6" font-family="Times,serif" font-size="8.00">+shapes : dali:Shape</text>
</a>
</g>
</g>
<!-- dali:Polygon -->
<g id="node9" class="node">
<title>dali:Polygon</title>
<g id="a_node9"><a xlink:href="../dali/Polygon" xlink:title="{&amp;lt;&amp;lt;datatype&amp;gt;&amp;gt;\nPolygon|+points : dali:Point\l}">
<polygon fill="#8dd3c7" stroke="black" points="696,-133 696,-176 788,-176 788,-133 696,-133"/>
<text text-anchor="middle" x="742" y="-165.6" font-family="Times,serif" font-size="8.00">&lt;&lt;datatype&gt;&gt;</text>
<text text-anchor="middle" x="742" y="-156.6" font-family="Times,serif" font-size="8.00">Polygon</text>
<polyline fill="none" stroke="black" points="696,-150 788,-150 "/>
<text text-anchor="start" x="704" y="-139.6" font-family="Times,serif" font-size="8.00">+points : dali:Point</text>
</a>
</g>
</g>
<!-- dali:Polygon&#45;&gt;dali:Shape -->
<g id="edge2" class="edge">
<title>dali:Polygon&#45;&gt;dali:Shape</title>
<path fill="none" stroke="red" d="M727.02,-132.74C719.74,-122.64 710.91,-110.41 703.24,-99.77"/>
<polygon fill="none" stroke="red" points="706.07,-97.72 697.38,-91.65 700.39,-101.81 706.07,-97.72"/>
</g>
<!-- dali:Interval -->
<g id="node10" class="node">
<title>dali:Interval</title>
<g id="a_node10"><a xlink:href="../dali/Interval" xlink:title="{&amp;lt;&amp;lt;datatype&amp;gt;&amp;gt;\nInterval|+lower : dali:double\l+upper : dali:double\l}">
<polygon fill="#8dd3c7" stroke="black" points="924.5,-128.5 924.5,-180.5 1023.5,-180.5 1023.5,-128.5 924.5,-128.5"/>
<text text-anchor="middle" x="974" y="-170.1" font-family="Times,serif" font-size="8.00">&lt;&lt;datatype&gt;&gt;</text>
<text text-anchor="middle" x="974" y="-161.1" font-family="Times,serif" font-size="8.00">Interval</text>
<polyline fill="none" stroke="black" points="924.5,-154.5 1023.5,-154.5 "/>
<text text-anchor="start" x="932.5" y="-144.1" font-family="Times,serif" font-size="8.00">+lower : dali:double</text>
<text text-anchor="start" x="932.5" y="-135.1" font-family="Times,serif" font-size="8.00">+upper : dali:double</text>
</a>
</g>
</g>
</g>
</svg>
